HIERARCHY
ROOT joint_Root
{
  OFFSET 0 0 0
  CHANNELS 6 Xposition Yposition Zposition Zrotation Xrotation Yrotation
  JOINT Hips
  {
    OFFSET 0 93.9241 -3
    CHANNELS 6 Xposition Yposition Zposition Zrotation Xrotation Yrotation
    JOINT Spine
    {
      OFFSET 15.7357 0 0
      CHANNELS 6 Xposition Yposition Zposition Zrotation Xrotation Yrotation
      JOINT Chest
      {
        OFFSET 8.98455 -0.406207 0
        CHANNELS 6 Xposition Yposition Zposition Zrotation Xrotation Yrotation
        JOINT Neck
        {
          OFFSET 16.3773 0 0
          CHANNELS 6 Xposition Yposition Zposition Zrotation Xrotation Yrotation
          JOINT Head
          {
            OFFSET 6.45672 0 0
            CHANNELS 6 Xposition Yposition Zposition Zrotation Xrotation Yrotation
            End Site
            {
              OFFSET 0 0 0
            }
          }
        }
        JOINT Shoulder_L
        {
          OFFSET 12.9942 -0.242716 4.98039
          CHANNELS 6 Xposition Yposition Zposition Zrotation Xrotation Yrotation
          JOINT UpperArm_L
          {
            OFFSET 5.34809 0 0
            CHANNELS 6 Xposition Yposition Zposition Zrotation Xrotation Yrotation
            JOINT LowerArm_L
            {
              OFFSET 24.3286 1.87007e-05 0
              CHANNELS 6 Xposition Yposition Zposition Zrotation Xrotation Yrotation
              JOINT Hand_L
              {
                OFFSET 22.2916 0 0
                CHANNELS 6 Xposition Yposition Zposition Zrotation Xrotation Yrotation
                End Site
                {
                  OFFSET 0 0 0
                }
              }
            }
          }
        }
        JOINT Shoulder_R
        {
          OFFSET 12.9945 -0.242716 -4.98039
          CHANNELS 6 Xposition Yposition Zposition Zrotation Xrotation Yrotation
          JOINT UpperArm_R
          {
            OFFSET -5.34813 0 0
            CHANNELS 6 Xposition Yposition Zposition Zrotation Xrotation Yrotation
            JOINT LowerArm_R
            {
              OFFSET -24.3289 0.000322201 0
              CHANNELS 6 Xposition Yposition Zposition Zrotation Xrotation Yrotation
              JOINT Hand_R
              {
                OFFSET -22.2915 -0.000108084 0
                CHANNELS 6 Xposition Yposition Zposition Zrotation Xrotation Yrotation
                End Site
                {
                  OFFSET 0 0 0
                }
              }
            }
          }
        }
      }
    }
    JOINT UpperLeg_L
    {
      OFFSET -2.19248 -6.46944 0
      CHANNELS 6 Xposition Yposition Zposition Zrotation Xrotation Yrotation
      JOINT LowerLeg_L
      {
        OFFSET 39.0811 0 -1.23785e-05
        CHANNELS 6 Xposition Yposition Zposition Zrotation Xrotation Yrotation
        JOINT Foot_L
        {
          OFFSET 40.9854 0 -1.26872e-05
          CHANNELS 6 Xposition Yposition Zposition Zrotation Xrotation Yrotation
          JOINT Toes_L
          {
            OFFSET 11.7543 0 0
            CHANNELS 6 Xposition Yposition Zposition Zrotation Xrotation Yrotation
            End Site
            {
              OFFSET 0 0 0
            }
          }
        }
      }
    }
    JOINT UpperLeg_R
    {
      OFFSET -2.19251 6.46944 0
      CHANNELS 6 Xposition Yposition Zposition Zrotation Xrotation Yrotation
      JOINT LowerLeg_R
      {
        OFFSET -39.0811 -0.00228153 -0.0401928
        CHANNELS 6 Xposition Yposition Zposition Zrotation Xrotation Yrotation
        JOINT Foot_R
        {
          OFFSET -40.9854 0 0
          CHANNELS 6 Xposition Yposition Zposition Zrotation Xrotation Yrotation
          JOINT Toes_R
          {
            OFFSET -11.7543 0 0
            CHANNELS 6 Xposition Yposition Zposition Zrotation Xrotation Yrotation
            End Site
            {
              OFFSET 0 0 0
            }
          }
        }
      }
    }
  }
}
MOTION
Frames:	4
Frame Time:	0.0333333
0 0 0 0 0 -0 2.70917 91.5588 -380.789 90.4623 2.82214 -0.826801 15.7357 5.1072e-06 -5.51765e-07 55.8605 88.317 -55.7108 8.98455 -0.406207 -4.3199e-07 -4.97903 -1.90376 0.216835 16.3773 -1.3905e-06 -6.99897e-07 -10.551 1.28296 -3.03694 6.45672 -1.25837e-06 -1.02172e-07 0.657595 -1.16752 -8.72465 12.9942 -0.242716 4.98039 -90.4016 1.85547 -92.7876 5.34809 -7.22636e-06 -6.2814e-07 -70.5177 0.7179 0.348395 24.3286 1.87007e-05 4.90208e-06 10.6857 15.4747 -35.2664 22.2916 -9.88446e-07 4.63217e-06 14.8274 5.29216 0.291282 12.9945 -0.242716 -4.98039 89.5039 2.19943 -92.2863 -5.34813 -1.25947e-06 -3.79883e-06 -69.1207 -11.5835 18.6006 -24.3289 0.000322201 -8.65921e-06 4.80091 16.2687 -16.6922 -22.2915 -0.000108084 -4.47941e-06 11.5998 5.35819 -1.62323 -2.19248 -6.46944 -1.22534e-07 171.179 -12.4598 -11.7968 39.0811 -6.73843e-06 -1.23785e-05 0.202775 -0.434344 22.658 40.9854 -6.48686e-06 -1.26872e-05 10.6377 7.08443 -64.0219 11.7543 -2.30145e-07 3.05095e-06 0.0973166 -0.109941 -17.6475 -2.19251 6.46944 -1.45247e-06 179.09 0.306847 150.429 -39.0811 -0.00228153 -0.0401928 -0.400451 0.266607 55.6796 -40.9854 7.72618e-06 5.99936e-06 12.4164 -24.181 -45.4671 -11.7543 -5.6619e-06 -5.58687e-06 0.581172 -0.654845 -21.4472 
0 0 0 0 0 -0 2.44976 91.7033 -379.654 89.8355 2.92146 -0.919909 15.7357 5.1072e-06 -5.51765e-07 50.4306 87.8888 -49.9564 8.98455 -0.406207 -4.3199e-07 -4.50234 -2.73824 0.841391 16.3773 -1.3905e-06 -6.99897e-07 -10.7079 1.15707 -3.06758 6.45672 -1.25837e-06 -1.02172e-07 0.0350105 -0.408917 -8.94025 12.9942 -0.242716 4.98039 -90.2792 1.3986 -93.7088 5.34809 -7.22636e-06 -6.2814e-07 -70.0247 2.77855 -2.83729 24.3286 1.87007e-05 4.90208e-06 12.146 15.3423 -39.1262 22.2916 -9.88446e-07 4.63217e-06 14.6813 5.2855 0.474091 12.9945 -0.242716 -4.98039 89.5063 2.0627 -91.5357 -5.34813 -1.25947e-06 -3.79883e-06 -68.7423 -12.3951 20.4537 -24.3289 0.000322201 -8.65921e-06 4.06216 16.2244 -14.265 -22.2915 -0.000108084 -4.47941e-06 10.1274 5.35182 -1.43021 -2.19248 -6.46944 -1.22533e-07 172.22 -11.4324 -10.871 39.0811 -6.73843e-06 -1.23785e-05 0.201855 -0.441998 22.3261 40.9854 -6.48686e-06 -1.26872e-05 10.0963 6.20342 -64.4806 11.7543 -2.30145e-07 3.05095e-06 0.127239 -0.144597 -17.9811 -2.19251 6.46944 -1.45247e-06 179.156 -3.01966 149.445 -39.0811 -0.00228153 -0.0401928 -0.306972 0.271006 47.6545 -40.9854 7.72618e-06 5.99936e-06 11.4113 -23.7833 -46.8098 -11.7543 -5.6619e-06 -5.58687e-06 0.594392 -0.671105 -21.5639 
0 0 0 0 0 -0 2.22334 91.7427 -378.508 89.7284 3.06783 -1.17657 15.7357 5.1072e-06 -5.51765e-07 45.1402 87.4791 -44.5632 8.98455 -0.406207 -4.3199e-07 -4.178 -3.6139 1.02295 16.3773 -1.3905e-06 -6.99897e-07 -10.7956 1.14711 -2.9775 6.45672 -1.25837e-06 -1.02172e-07 -0.604485 0.238865 -8.9499 12.9942 -0.242716 4.98039 -90.2047 1.07975 -94.2633 5.34809 -7.22636e-06 -6.2814e-07 -68.7824 4.33832 -5.75945 24.3286 1.87007e-05 4.90208e-06 13.4377 14.7718 -43.139 22.2916 -9.88446e-07 4.63217e-06 14.9095 5.2835 0.528056 12.9945 -0.242716 -4.98039 89.4517 2.17763 -90.8625 -5.34813 -1.25947e-06 -3.79883e-06 -68.2021 -12.5592 22.406 -24.3289 0.000322201 -8.65921e-06 3.65945 16.5919 -12.628 -22.2915 -0.000108084 -4.47941e-06 9.42032 5.3384 -1.03148 -2.19248 -6.46944 -1.22534e-07 172.624 -9.78861 -10.2148 39.0811 -6.73843e-06 -1.23785e-05 0.198492 -0.438861 22.1492 40.9854 -6.48686e-06 -1.26872e-05 9.4998 4.71146 -64.8944 11.7543 -2.30145e-07 3.05095e-06 0.0921883 -0.104053 -17.5906 -2.19251 6.46944 -1.45247e-06 178.697 -5.14738 149.508 -39.0811 -0.00228153 -0.0401928 -0.202926 0.254946 37.6334 -40.9854 7.72618e-06 5.99936e-06 10.6325 -22.2223 -46.8935 -11.7543 -5.6619e-06 -5.58687e-06 0.569184 -0.64015 -21.3419 
0 0 0 0 0 -0 2.03092 91.7001 -377.297 90.1585 3.36525 -1.53032 15.7357 5.1072e-06 -5.51765e-07 41.2974 87.1585 -40.8303 8.98455 -0.406207 -4.3199e-07 -4.00334 -4.31474 0.784249 16.3773 -1.3905e-06 -6.99897e-07 -11.0732 1.06251 -2.87349 6.45672 -1.25837e-06 -1.02172e-07 -0.88503 0.592677 -8.93214 12.9942 -0.242716 4.98039 -90.1428 0.782969 -94.6684 5.34809 -7.22636e-06 -6.2814e-07 -67.2796 5.64663 -8.5796 24.3286 1.87007e-05 4.90207e-06 14.794 14.2528 -47.0083 22.2916 -9.88446e-07 4.63217e-06 15.4888 5.26715 0.975146 12.9945 -0.242716 -4.98039 89.367 2.38293 -90.1202 -5.34813 -1.25947e-06 -3.79883e-06 -67.3014 -13.3859 24.7023 -24.3289 0.000322201 -8.65921e-06 3.3931 16.5859 -11.737 -22.2915 -0.000108084 -4.47941e-06 9.44251 5.33845 -1.03343 -2.19248 -6.46944 -1.22533e-07 172.439 -7.46409 -9.56692 39.0811 -6.73843e-06 -1.23785e-05 0.181039 -0.400004 21.9677 40.9854 -6.48686e-06 -1.26872e-05 8.87384 2.86537 -65.2937 11.7543 -2.30145e-07 3.05095e-06 0.0869199 -0.0979853 -17.532 -2.19251 6.46944 -1.45247e-06 178.164 -5.63143 150.652 -39.0811 -0.00228153 -0.0401928 -0.113853 0.219579 26.2981 -40.9854 7.72618e-06 5.99936e-06 9.48166 -18.3266 -47.2236 -11.7543 -5.6619e-06 -5.58687e-06 0.547701 -0.613958 -21.1534 
